# xmcd
#
# Track frame offsets: 
#        150
#        15223
#        28948
#        42918
#        56488
#        69950
#        84110
#        98428
#        112673
#        128280
#        142598
#        154673
#        168173
#        182305
#        196508
#        210948
#        225473
#        240298
#        253315
#        265728
#        278443
#        290930
#        302958
#
# Disc length: 4204 seconds
#
# Revision: 0
# Processed by: cddbd v1.5.2PL0 Copyright (c) Steve Scherf et al.
# Submitted via: ExactAudioCopy v0.95b3
#
DISCID=0a106a17
DTITLE=Jimmy Yancey  - Volume 1 1939 Complete Edition
DYEAR=1900
DGENRE=
TTITLE0=Jimmy's Stuff
TTITLE1=The Fives
TTITLE2=La Salle Street Breakdown
TTITLE3=Two O'Clock Blues
TTITLE4=Janie's Joys
TTITLE5=Lean Bacon
TTITLE6=Big Bear Train
TTITLE7=Lucille's Lament
TTITLE8=Beezum Blues
TTITLE9=Yancey Limited
TTITLE10=Rolling The Stone
TTITLE11=Steady Rock Blues
TTITLE12=P. L. K. Special
TTITLE13=South Side Stuff
TTITLE14=Yancey's Getaway
TTITLE15=How Long Blues
TTITLE16=How Long Blues No. 2
TTITLE17=Yancey Stomp
TTITLE18=State Street Special
TTITLE19=Tell 'Em About Me
TTITLE20=Five O'Clock Blues
TTITLE21=Slow And Easy Blues
TTITLE22=The Mellow Blues
EXTD=
EXTT0=
EXTT1=
EXTT2=
EXTT3=
EXTT4=
EXTT5=
EXTT6=
EXTT7=
EXTT8=
EXTT9=
EXTT10=
EXTT11=
EXTT12=
EXTT13=
EXTT14=
EXTT15=
EXTT16=
EXTT17=
EXTT18=
EXTT19=
EXTT20=
EXTT21=
EXTT22=
PLAYORDER=
